<svg version="1.1" viewBox="0.0 0.0 480.0 480.0" fill="none" stroke="none" stroke-linecap="square" stroke-miterlimit="10" xmlns:xlink="http://www.w3.org/1999/xlink" xmlns="http://www.w3.org/2000/svg"><clipPath id="p.0"><path d="m0 0l480.0 0l0 480.0l-480.0 0l0 -480.0z" clip-rule="nonzero"/></clipPath><g clip-path="url(#p.0)"><path fill="#000000" fill-opacity="0.0" d="m0 0l480.0 0l0 480.0l-480.0 0z" fill-rule="evenodd"/><path fill="#0f1a20" d="m0 0l480.0 0l0 480.0l-480.0 0z" fill-rule="evenodd"/><path stroke="#4045c9" stroke-width="16.0" stroke-linejoin="round" stroke-linecap="butt" d="m0 0l480.0 0l0 480.0l-480.0 0z" fill-rule="evenodd"/><path fill="#ff4d94" d="m103.05087 417.49536l300.0859 0l0 -64.42099l-300.0859 0z" fill-rule="evenodd"/><path stroke="#ff4d94" stroke-width="1.0" stroke-linejoin="round" stroke-linecap="butt" d="m103.05087 417.49536l300.0859 0l0 -64.42099l-300.0859 0z" fill-rule="evenodd"/><path fill="#ff4d94" d="m103.05593 126.982925l300.17694 0l0 -64.49128l-300.17694 0z" fill-rule="evenodd"/><path stroke="#ff4d94" stroke-width="1.0" stroke-linejoin="round" stroke-linecap="butt" d="m103.05593 126.982925l300.17694 0l0 -64.49128l-300.17694 0z" fill-rule="evenodd"/><path fill="#ff4d94" d="m403.2347 417.5277l0 -355.063l-63.94519 0l0 355.063z" fill-rule="evenodd"/><path stroke="#ff4d94" stroke-width="1.0" stroke-linejoin="round" stroke-linecap="butt" d="m403.2347 417.5277l0 -355.063l-63.94519 0l0 355.063z" fill-rule="evenodd"/><path fill="#ff4d94" d="m162.53217 417.5277l0 -192.99255l-69.97429 0l0 192.99255z" fill-rule="evenodd"/><path stroke="#ff4d94" stroke-width="1.0" stroke-linejoin="round" stroke-linecap="butt" d="m162.53217 417.5277l0 -192.99255l-69.97429 0l0 192.99255z" fill-rule="evenodd"/><path fill="#ff4d94" d="m40.622063 270.7623l86.91977 -100.22618l86.91976 100.22618z" fill-rule="evenodd"/><path stroke="#ff4d94" stroke-width="1.0" stroke-linejoin="round" stroke-linecap="butt" d="m40.622063 270.7623l86.91977 -100.22618l86.91976 100.22618z" fill-rule="evenodd"/></g></svg>