<svg version="1.1" viewBox="0.0 0.0 960.0 960.0" fill="none" stroke="none" stroke-linecap="square" stroke-miterlimit="10" xmlns:xlink="http://www.w3.org/1999/xlink" xmlns="http://www.w3.org/2000/svg"><clipPath id="p.0"><path d="m0 0l960.0 0l0 960.0l-960.0 0l0 -960.0z" clip-rule="nonzero"/></clipPath><g clip-path="url(#p.0)"><path fill="#000000" fill-opacity="0.0" d="m0 0l960.0 0l0 960.0l-960.0 0z" fill-rule="evenodd"/><path fill="#ffffff" fill-opacity="0.0" d="m12.944881 168.63304l0 0c0 -85.9842 69.703964 -155.68816 155.68816 -155.68816l622.7339 0l0 0c41.291077 0 80.89099 16.402813 110.088196 45.600006c29.197144 29.197193 45.599976 68.79709 45.599976 110.08815l0 622.7339c0 85.98419 -69.70398 155.68817 -155.68817 155.68817l-622.7339 0c-85.9842 0 -155.68816 -69.70398 -155.68816 -155.68817z" fill-rule="evenodd"/><path stroke="#ffffff" stroke-width="24.0" stroke-linejoin="round" stroke-linecap="butt" d="m12.944881 168.63304l0 0c0 -85.9842 69.703964 -155.68816 155.68816 -155.68816l622.7339 0l0 0c41.291077 0 80.89099 16.402813 110.088196 45.600006c29.197144 29.197193 45.599976 68.79709 45.599976 110.08815l0 622.7339c0 85.98419 -69.70398 155.68817 -155.68817 155.68817l-622.7339 0c-85.9842 0 -155.68816 -69.70398 -155.68816 -155.68817z" fill-rule="evenodd"/><path fill="#ffffff" d="m432.64566 209.10793l0 0c0 -8.717865 7.06723 -15.785095 15.785095 -15.785095l63.13849 0l0 0c4.186432 0 8.201447 1.6630707 11.161713 4.623352c2.9603271 2.9602814 4.623352 6.975281 4.623352 11.161743l0 541.7842c0 8.717834 -7.0671997 15.785095 -15.785065 15.785095l-63.13849 0c-8.717865 0 -15.785095 -7.0672607 -15.785095 -15.785095z" fill-rule="evenodd"/><path stroke="#ffffff" stroke-width="1.0" stroke-linejoin="round" stroke-linecap="butt" d="m432.64566 209.10793l0 0c0 -8.717865 7.06723 -15.785095 15.785095 -15.785095l63.13849 0l0 0c4.186432 0 8.201447 1.6630707 11.161713 4.623352c2.9603271 2.9602814 4.623352 6.975281 4.623352 11.161743l0 541.7842c0 8.717834 -7.0671997 15.785095 -15.785065 15.785095l-63.13849 0c-8.717865 0 -15.785095 -7.0672607 -15.785095 -15.785095z" fill-rule="evenodd"/><path fill="#ffffff" d="m750.8921 432.64566l0 0c8.717834 0 15.785095 7.06723 15.785095 15.785095l0 63.13849l0 0c0 4.186432 -1.6630859 8.201447 -4.623352 11.161713c-2.960266 2.9603271 -6.975281 4.623352 -11.161743 4.623352l-541.7842 0c-8.717865 0 -15.785095 -7.0671997 -15.785095 -15.785065l0 -63.13849c0 -8.717865 7.06723 -15.785095 15.785095 -15.785095z" fill-rule="evenodd"/><path stroke="#ffffff" stroke-width="1.0" stroke-linejoin="round" stroke-linecap="butt" d="m750.8921 432.64566l0 0c8.717834 0 15.785095 7.06723 15.785095 15.785095l0 63.13849l0 0c0 4.186432 -1.6630859 8.201447 -4.623352 11.161713c-2.960266 2.9603271 -6.975281 4.623352 -11.161743 4.623352l-541.7842 0c-8.717865 0 -15.785095 -7.0671997 -15.785095 -15.785065l0 -63.13849c0 -8.717865 7.06723 -15.785095 15.785095 -15.785095z" fill-rule="evenodd"/></g></svg>